<?xml version="1.0" encoding="UTF-8"?>
<svg width="21px" height="16px" viewBox="0 0 21 16" version="1.1" xmlns="http://www.w3.org/2000/svg" xmlns:xlink="http://www.w3.org/1999/xlink">
    <!-- Generator: Sketch 46.2 (44496) - http://www.bohemiancoding.com/sketch -->
    <title>open menu_black</title>
    <desc>Created with Sketch.</desc>
    <defs></defs>
    <g id="Blocks-&amp;-Components" stroke="none" stroke-width="1" fill="none" fill-rule="evenodd">
        <g id="icons/sidebar/white" transform="translate(-5.000000, -5.000000)">
            <g id="open-menu_black">
                <rect id="frame" x="0" y="0" width="28" height="28"></rect>
                <path d="M6,5 L17,5 C17.5522847,5 18,5.44771525 18,6 L18,6 C18,6.55228475 17.5522847,7 17,7 L6,7 C5.44771525,7 5,6.55228475 5,6 L5,6 L5,6 C5,5.44771525 5.44771525,5 6,5 L6,5 Z M6.5,11.4537815 L24.5,11.4537815 C25.3284271,11.4537815 26,12.1253544 26,12.9537815 C26,13.7822086 25.3284271,14.4537815 24.5,14.4537815 L6.5,14.4537815 C5.67157288,14.4537815 5,13.7822086 5,12.9537815 C5,12.1253544 5.67157288,11.4537815 6.5,11.4537815 L6.5,11.4537815 Z M6,18.9831933 L10,18.9831933 C10.5522847,18.9831933 11,19.4309085 11,19.9831933 C11,20.535478 10.5522847,20.9831933 10,20.9831933 L6,20.9831933 C5.44771525,20.9831933 5,20.535478 5,19.9831933 C5,19.4309085 5.44771525,18.9831933 6,18.9831933 L6,18.9831933 Z" id="shapes" fill="#FFFFFF"></path>
            </g>
        </g>
    </g>
</svg>