<?xml version="1.0" encoding="UTF-8"?>
<svg width="20px" height="20px" viewBox="0 0 20 20" version="1.1" xmlns="http://www.w3.org/2000/svg" xmlns:xlink="http://www.w3.org/1999/xlink">
    <!-- Generator: Sketch 46.2 (44496) - http://www.bohemiancoding.com/sketch -->
    <title>icon@1x</title>
    <desc>Created with Sketch.</desc>
    <defs></defs>
    <g id="Blocks-&amp;-Components" stroke="none" stroke-width="1" fill="none" fill-rule="evenodd">
        <g id="icons/search/white" transform="translate(-5.000000, -3.000000)">
            <g id="icon">
                <rect id="frame" x="0" y="0" width="28" height="28"></rect>
                <path d="M19.1170909,15.9599773 C20.1248864,14.7001818 20.7272727,13.1022727 20.7272727,11.3636364 C20.7272727,7.29686364 17.4306136,4 13.3636364,4 C9.29686364,4 6,7.29686364 6,11.3636364 C6,15.4304091 9.29686364,18.7272727 13.3636364,18.7272727 C15.1022727,18.7272727 16.7001818,18.1246818 17.9599773,17.1168864 L22.6033636,21.7602727 C22.7631136,21.9200227 22.9725682,22 23.1818182,22 C23.3912727,22 23.6007273,21.9200227 23.7604773,21.7602727 C24.0799773,21.4409773 24.0799773,20.9226591 23.7604773,20.6033636 L19.1170909,15.9599773 Z M13.3636364,17.0909091 C10.2005455,17.0909091 7.63636364,14.5267273 7.63636364,11.3636364 C7.63636364,8.20054545 10.2005455,5.63636364 13.3636364,5.63636364 C16.5269318,5.63636364 19.0909091,8.20054545 19.0909091,11.3636364 C19.0909091,14.5267273 16.5269318,17.0909091 13.3636364,17.0909091 L13.3636364,17.0909091 Z" id="shapes" stroke="#FFFFFF" fill="#FFFFFF"></path>
            </g>
        </g>
    </g>
</svg>