<?xml version="1.0" encoding="UTF-8"?>
<svg width="56px" height="56px" viewBox="0 0 56 56" version="1.1" xmlns="http://www.w3.org/2000/svg" xmlns:xlink="http://www.w3.org/1999/xlink">
    <!-- Generator: Sketch 46.2 (44496) - http://www.bohemiancoding.com/sketch -->
    <title>playsz6</title>
    <desc>Created with Sketch.</desc>
    <defs></defs>
    <g id="Blocks-&amp;-Components" stroke="none" stroke-width="1" fill="none" fill-rule="evenodd">
        <g id="icons/play/large/style-1/black" transform="translate(-4.000000, -4.000000)">
            <g id="play">
                <rect id="frame" x="0" y="0" width="64" height="64"></rect>
                <path d="M32.2692308,59.4615385 C16.9539498,59.4615385 4.53846154,47.0460502 4.53846154,31.7307692 C4.53846154,16.4154883 16.9539498,4 32.2692308,4 C47.5845117,4 60,16.4154883 60,31.7307692 C60,47.0460502 47.5845117,59.4615385 32.2692308,59.4615385 Z M41.9439529,28.728974 L29.1551357,21.1004519 C26.2992777,19.3969342 24,20.7101347 24,24.0219025 L24,39.5861163 C24,42.8901286 26.3080329,44.2058622 29.1551357,42.507567 L41.9439529,34.8790449 C44.7998109,33.1755272 44.7910557,30.4272692 41.9439529,28.728974 Z" id="shapes" fill="#FFFFFF"></path>
            </g>
        </g>
    </g>
</svg>