<?xml version="1.0" encoding="UTF-8"?>
<svg width="20px" height="20px" viewBox="0 0 20 20" version="1.1" xmlns="http://www.w3.org/2000/svg" xmlns:xlink="http://www.w3.org/1999/xlink">
    <!-- Generator: Sketch 46.2 (44496) - http://www.bohemiancoding.com/sketch -->
    <title>repeat</title>
    <desc>Created with Sketch.</desc>
    <defs></defs>
    <g id="Blocks-&amp;-Components" stroke="none" stroke-width="1" fill="none" fill-rule="evenodd">
        <g id="icons/repeat/white" transform="translate(-4.000000, -4.000000)">
            <g id="repeat">
                <rect id="frame" x="0" y="0" width="28" height="28"></rect>
                <g id="shapes" transform="translate(5.000000, 5.000000)" stroke="#FFFFFF" stroke-width="2.16" stroke-linecap="round" stroke-linejoin="round">
                    <path d="M16.923913,9.01789107 L16.923913,13.7003184 C16.923913,14.4082318 16.3259965,14.9821089 15.5869502,14.9821089 L2.34782609,14.9821089" id="Rectangle-9"></path>
                    <polyline id="Triangle-4" points="4.93135668 17.96625 0.76696512 14.9841411 0.76696512 14.9841411 4.93135668 12.0020321"></polyline>
                    <path d="M15.1793797,3.72664107 L15.1793797,8.40906842 C15.1793797,9.11698177 14.5814631,9.69085893 13.8424169,9.69085893 L0.603292714,9.69085893" id="Rectangle-9" transform="translate(7.891336, 6.708750) scale(-1, -1) translate(-7.891336, -6.708750) "></path>
                    <polyline id="Triangle-4" transform="translate(14.678045, 3.724609) scale(-1, 1) translate(-14.678045, -3.724609) " points="16.7602406 6.70671786 12.5958491 3.72460893 12.5958491 3.72460893 16.7602406 0.7425"></polyline>
                </g>
            </g>
        </g>
    </g>
</svg>