<?xml version="1.0" encoding="UTF-8"?>
<svg width="26px" height="23px" viewBox="0 0 26 23" version="1.1" xmlns="http://www.w3.org/2000/svg" xmlns:xlink="http://www.w3.org/1999/xlink">
    <!-- Generator: Sketch 46.2 (44496) - http://www.bohemiancoding.com/sketch -->
    <title>queue</title>
    <desc>Created with Sketch.</desc>
    <defs>
        <path d="M5.963781,5.59628298 L1.9331164,7.84381662 L1.9331164,7.84381662 C1.30604488,8.19347715 0.514247112,7.96859111 0.164586582,7.3415196 C0.0566558886,7.14795968 4.96437974e-16,6.93002106 6.66133815e-16,6.7084032 L0,2.21333593 L2.22044605e-16,2.21333593 C1.34118617e-16,1.49536576 0.582029825,0.91333593 1.3,0.91333593 C1.52161786,0.91333593 1.73955648,0.969991818 1.9331164,1.07792251 L5.963781,3.32545615 L5.963781,3.32545615 C6.59085252,3.67511668 6.81573856,4.46691444 6.46607803,5.09398596 C6.34852445,5.3048033 6.17459834,5.4787294 5.963781,5.59628298 Z" id="path-1"></path>
    </defs>
    <g id="Blocks-&amp;-Components" stroke="none" stroke-width="1" fill="none" fill-rule="evenodd">
        <g id="icons/queue/white">
            <g id="queue">
                <rect id="frame" x="0" y="0" width="28" height="28"></rect>
                <g id="shapes" transform="translate(3.730469, 2.974121)">
                    <rect id="Rectangle-4" fill="#FFFFFF" x="3" y="2.97391304" width="13" height="3" rx="1.5"></rect>
                    <rect id="Rectangle-4-Copy" fill="#FFFFFF" x="3" y="9.91304348" width="19" height="3" rx="1.5"></rect>
                    <rect id="Rectangle-4-Copy-2" fill="#FFFFFF" x="3" y="16.8521739" width="9" height="3" rx="1.5"></rect>
                    <g id="Triangle-2">
                        <use fill="#FFFFFF" fill-rule="evenodd" xlink:href="#path-1"></use>
                        <path stroke="#1F111C" stroke-width="3" d="M6.69429992,6.90637539 L2.66363531,9.15390902 C1.31301974,9.90702401 -0.392390836,9.42265409 -1.14550582,8.07203851 C-1.37797193,7.65514023 -1.5,7.18573398 -1.5,6.7084032 L-1.5,2.21333593 C-1.5,0.66693863 -0.2463973,-0.58666407 1.3,-0.58666407 C1.77733078,-0.58666407 2.24673703,-0.464636003 2.66363531,-0.232169894 L6.69429992,2.01536374 C8.04491549,2.76847873 8.52928542,4.47388931 7.77617043,5.82450488 C7.52297811,6.27857299 7.14836803,6.65318306 6.69429992,6.90637539 Z"></path>
                    </g>
                </g>
            </g>
        </g>
    </g>
</svg>