<svg xmlns="http://www.w3.org/2000/svg" width="24" height="20" viewBox="0 0 24 20">
    <g fill="none" fill-rule="evenodd">
        <path stroke="#FFF" stroke-width="2.88" d="M5.948 10a8 8 0 0 1 8.003-8h.047C18.418 2 22 5.59 22 10c0 4.418-3.573 8-8.003 8H2.492c-.554 0-.668-.288-.256-.667 0 0 3.712-2.941 3.712-6.55V10z"/>
        <path fill="#FFF" d="M10 7.8c0-.442.365-.8.796-.8h6.408c.44 0 .796.355.796.8 0 .442-.365.8-.796.8h-6.408A.796.796 0 0 1 10 7.8zm0 2.4c0-.442.35-.8.798-.8h3.737c.44 0 .798.355.798.8 0 .442-.35.8-.798.8h-3.737a.797.797 0 0 1-.798-.8z"/>
    </g>
</svg>
