<svg xmlns="http://www.w3.org/2000/svg" width="23" height="18" viewBox="0 0 23 18">
    <path fill="#FFF" fill-rule="evenodd" d="M7.547 17.193c8.04 0 12.436-6.373 12.436-11.897 0-.179 0-.358-.013-.543a8.685 8.685 0 0 0 2.178-2.168 8.914 8.914 0 0 1-2.512.659A4.229 4.229 0 0 0 21.56.93a9.049 9.049 0 0 1-2.773 1.016C17.13.265 14.363.182 12.606 1.767c-1.136 1.023-1.617 2.545-1.263 3.996-3.515-.166-6.79-1.758-9.008-4.367-1.162 1.912-.568 4.354 1.35 5.581A4.464 4.464 0 0 1 1.7 6.453v.051c0 1.989 1.47 3.702 3.509 4.098a4.558 4.558 0 0 1-1.972.07c.575 1.701 2.212 2.871 4.083 2.903a9.05 9.05 0 0 1-5.426 1.796c-.347 0-.695-.019-1.042-.057a12.772 12.772 0 0 0 6.695 1.88"/>
</svg>
