<svg xmlns="http://www.w3.org/2000/svg" width="23" height="23" viewBox="0 0 23 23">
    <g fill="none" fill-rule="evenodd" stroke="#FFF">
        <path stroke-width="3" d="M2.403 19.875c.24-.703.462-1.345.685-1.986.286-.834.573-1.663.871-2.497a.354.354 0 0 0-.035-.34 8.421 8.421 0 0 1-1.193-4.416c.023-4.364 3.48-8.087 7.932-8.564 4.745-.505 8.951 2.52 9.858 7.094.918 4.665-2.393 9.308-7.213 10.113-1.995.335-3.896.069-5.704-.817a.634.634 0 0 0-.527-.034c-1.433.454-2.872.897-4.305 1.34-.094.028-.2.056-.369.107z"/>
        <path fill="#FFF" stroke-width=".55" d="M8.786 6.459c.134.011.269.034.41.034.21-.006.333.102.403.272.245.619.485 1.232.72 1.856.075.199-.012.375-.13.528a6.5 6.5 0 0 1-.497.55c-.152.148-.187.29-.082.477.708 1.254 1.72 2.18 3.078 2.753.18.08.315.028.438-.108.228-.255.474-.5.69-.772.159-.199.328-.255.556-.142l1.808.92c.164.079.199.215.187.38-.064.987-.608 1.527-1.743 1.805-.415.102-.82.045-1.234-.069-2.253-.63-3.943-1.952-5.178-3.859-.41-.635-.819-1.265-.942-2.02-.158-.954.14-1.754.878-2.395a.83.83 0 0 1 .638-.21z"/>
    </g>
</svg>
