<?xml version="1.0" encoding="UTF-8"?>
<svg width="23px" height="18px" viewBox="0 0 23 18" version="1.1" xmlns="http://www.w3.org/2000/svg" xmlns:xlink="http://www.w3.org/1999/xlink">
    <!-- Generator: Sketch 46.2 (44496) - http://www.bohemiancoding.com/sketch -->
    <title>albums_2@1x</title>
    <desc>Created with Sketch.</desc>
    <defs>
        <rect id="path-1" x="0" y="0" width="14" height="14" rx="3"></rect>
    </defs>
    <g id="Blocks-&amp;-Components" stroke="none" stroke-width="1" fill="none" fill-rule="evenodd">
        <g id="icons/album/black" transform="translate(-5.000000, -8.000000)">
            <g id="albums_2">
                <rect id="frame" x="0" y="0" width="34" height="34"></rect>
                <g id="shapes" transform="translate(7.000000, 10.000000)">
                    <circle id="circle" fill="#1F111C" cx="16" cy="7" r="5"></circle>
                    <circle id="small-circle" fill="#FFFFFF" cx="16.5" cy="7.5" r="1.5"></circle>
                    <g id="square">
                        <use fill="#1F111C" fill-rule="evenodd" xlink:href="#path-1"></use>
                        <rect stroke="#FFFFFF" stroke-width="2" x="-1" y="-1" width="16" height="16" rx="3"></rect>
                    </g>
                    <path d="M8.375,4.72727273 L8.375,9.30455735 C8.375,9.35926421 8.37004825,9.41280148 8.36056245,9.46473579 C8.37009891,9.55087473 8.375,9.63847908 8.375,9.72727273 C8.375,10.9824653 7.39562289,12 6.1875,12 C4.97937711,12 4,10.9824653 4,9.72727273 C4,8.47208011 4.97937711,7.45454545 6.1875,7.45454545 C6.3373288,7.45454545 6.4836394,7.47019557 6.625,7.50000823 L6.625,3.78635175 C6.625,3.72194811 6.63186272,3.65916542 6.64490664,3.59871077 C6.63181992,3.52242423 6.625,3.44388749 6.625,3.36363636 C6.625,2.6105208 7.233325,2 7.98529534,2 L9.63970466,2 C10.390975,2 11,2.60527021 11,3.36363636 L11,3.72722329 C11,4.27953534 10.5482764,4.72727273 10.0072448,4.72727273 L8.375,4.72727273 Z" id="note" fill="#FFFFFF"></path>
                </g>
            </g>
        </g>
    </g>
</svg>