<?xml version="1.0" encoding="UTF-8"?>
<svg width="22px" height="18px" viewBox="0 0 22 18" version="1.1" xmlns="http://www.w3.org/2000/svg" xmlns:xlink="http://www.w3.org/1999/xlink">
    <!-- Generator: Sketch 46.2 (44496) - http://www.bohemiancoding.com/sketch -->
    <title>favorites artists@1x</title>
    <desc>Created with Sketch.</desc>
    <defs>
        <path d="M15.8118845,16.2089844 C15.7286258,16.2089844 15.6451469,16.1841999 15.5720203,16.1345158 L12.9940856,14.3842737 L10.4160407,16.1346311 C10.2622986,16.2390715 10.0627421,16.2330771 9.91494696,16.1188382 C9.76726196,16.0051756 9.70250523,15.8074766 9.75228421,15.6225732 L10.559761,12.623772 L8.15010573,10.4895442 C8.01343378,10.3683886 7.96035088,10.1727645 8.01585665,9.99454715 C8.07136242,9.81632979 8.22444381,9.69102431 8.40307548,9.67765224 L11.2930099,9.45966451 L12.5934308,6.47861595 C12.6650156,6.31434703 12.8216212,6.20898438 12.9940856,6.20898438 C13.1665499,6.20898438 13.3232656,6.31434703 13.3948504,6.47861595 L14.6953815,9.45966451 L17.5852058,9.67765224 C17.7638374,9.69102431 17.9169188,9.81632979 17.9724246,9.99454715 C18.0279304,10.1727645 17.9748475,10.3683886 17.8381755,10.4895442 L15.4284101,12.623772 L16.2358869,15.6226884 C16.2856659,15.8075918 16.2209092,16.0050604 16.0732242,16.1189535 C15.9955822,16.1786667 15.9037333,16.2089844 15.8118845,16.2089844 Z" id="path-1"></path>
    </defs>
    <g id="Blocks-&amp;-Components" stroke="none" stroke-width="1" fill="none" fill-rule="evenodd">
        <g id="icons/person/black/with-star" transform="translate(-7.000000, -8.000000)">
            <g id="favorites-artists">
                <rect id="frame" x="0" y="0" width="34" height="34"></rect>
                <g id="shapes" transform="translate(9.005859, 7.791016)">
                    <path d="M13,14.7648234 C13,12.0585834 10.0898509,9.86474248 6.5,9.86474248 C2.91014913,9.86474248 -4.79616347e-14,12.0585834 -4.79616347e-14,14.7648234" id="Oval-5" stroke="#1F111C" stroke-width="2.8" stroke-linecap="round"></path>
                    <circle id="Oval-6" fill="#1F111C" cx="6.56061154" cy="4.7349371" r="4.25491718"></circle>
                    <g id="Shapes">
                        <use fill="#1F111C" fill-rule="evenodd" xlink:href="#path-1"></use>
                        <path stroke="#FFFFFF" stroke-width="2" d="M12.9940921,15.5929752 L10.9779672,16.9618183 C10.4661518,17.3095057 9.79311939,17.2885773 9.30503827,16.9113099 C8.83399105,16.5487786 8.6326954,15.9345306 8.78667713,15.3625675 L9.43313471,12.9617583 L7.4867538,11.2378517 C7.05369352,10.8539569 6.88942635,10.248367 7.06109166,9.69718574 C7.23698779,9.13242024 7.7349523,8.72486885 8.32785916,8.680485 L10.6172354,8.50779736 L11.6766948,6.07912234 C11.9052931,5.55454762 12.4188175,5.20898438 12.9940856,5.20898438 C13.5693032,5.20898438 14.0829706,5.5545073 14.3114225,6.07874643 L15.3711357,8.5077976 L17.6598552,8.6804424 C18.2533289,8.72486885 18.7512935,9.13242024 18.9271896,9.69718574 C19.0988549,10.248367 18.9345877,10.8539569 18.5011871,11.2381533 L16.5550355,12.9617779 L17.2015062,15.3627281 C17.3554297,15.9344751 17.1542764,16.5480848 16.6828616,16.9116338 C16.4317365,17.1047701 16.1258975,17.2089844 15.8118845,17.2089844 C15.5270359,17.2089844 15.247971,17.123323 15.0103147,16.961853 L12.9940921,15.5929752 Z"></path>
                    </g>
                </g>
            </g>
        </g>
    </g>
</svg>