<?xml version="1.0" encoding="UTF-8"?>
<svg width="19px" height="16px" viewBox="0 0 19 16" version="1.1" xmlns="http://www.w3.org/2000/svg" xmlns:xlink="http://www.w3.org/1999/xlink">
    <!-- Generator: Sketch 46.2 (44496) - http://www.bohemiancoding.com/sketch -->
    <title>news@1x</title>
    <desc>Created with Sketch.</desc>
    <defs></defs>
    <g id="Blocks-&amp;-Components" stroke="none" stroke-width="1" fill="none" fill-rule="evenodd">
        <g id="icons/news/black" transform="translate(-7.000000, -8.000000)">
            <g id="news">
                <rect id="frame" x="0" y="0" width="34" height="34"></rect>
                <g id="shapes">
                    <path d="M15.56,8 L21.56,8 L21.56,8 C23.769139,8 25.56,9.790861 25.56,12 L25.56,20 L25.56,20 C25.56,22.209139 23.769139,24 21.56,24 L14.56,24 L14.56,24 C12.9031458,24 11.56,22.6568542 11.56,21 L11.56,12 L11.56,12 C11.56,9.790861 13.350861,8 15.56,8 Z M15.9619139,11.6363636 L21.1580861,11.6363636 L21.1580861,11.6363636 C21.9614094,11.6363636 22.6126316,12.2875858 22.6126316,13.0909091 L22.6126316,13.0909091 L22.6126316,13.0909091 C22.6126316,13.8942324 21.9614094,14.5454545 21.1580861,14.5454545 L15.9619139,14.5454545 L15.9619139,14.5454545 C15.1585906,14.5454545 14.5073684,13.8942324 14.5073684,13.0909091 L14.5073684,13.0909091 L14.5073684,13.0909091 C14.5073684,12.2875858 15.1585906,11.6363636 15.9619139,11.6363636 Z M15.2346411,16 L21.1485167,16 L21.1485167,16 C21.5501784,16 21.8757895,16.3256111 21.8757895,16.7272727 L21.8757895,16.7272727 L21.8757895,16.7272727 C21.8757895,17.1289344 21.5501784,17.4545455 21.1485167,17.4545455 L15.2346411,17.4545455 L15.2346411,17.4545455 C14.8329795,17.4545455 14.5073684,17.1289344 14.5073684,16.7272727 L14.5073684,16.7272727 L14.5073684,16.7272727 C14.5073684,16.3256111 14.8329795,16 15.2346411,16 Z M15.2346411,18.9090909 L18.9379904,18.9090909 L18.9379904,18.9090909 C19.3396521,18.9090909 19.6652632,19.234702 19.6652632,19.6363636 L19.6652632,19.6363636 L19.6652632,19.6363636 C19.6652632,20.0380253 19.3396521,20.3636364 18.9379904,20.3636364 L15.2346411,20.3636364 L15.2346411,20.3636364 C14.8329795,20.3636364 14.5073684,20.0380253 14.5073684,19.6363636 L14.5073684,19.6363636 L14.5073684,19.6363636 C14.5073684,19.234702 14.8329795,18.9090909 15.2346411,18.9090909 Z" id="Combined-Shape" fill="#120810"></path>
                    <path d="M12.08,12.56 L11,12.56 C9.34314575,12.56 8,13.9031458 8,15.56 L8,20.96 C8,22.0866609 8.91333911,23 10.04,23 L10.08,23 C11.1845695,23 12.08,22.1045695 12.08,21 L12.08,12.56 Z" id="Rectangle-8-Copy" stroke="#120810" stroke-width="2"></path>
                    <rect id="Rectangle-9" fill="#120810" x="10" y="22" width="4.96" height="2"></rect>
                </g>
            </g>
        </g>
    </g>
</svg>