<?xml version="1.0" encoding="UTF-8"?>
<svg width="17px" height="18px" viewBox="0 0 17 18" version="1.1" xmlns="http://www.w3.org/2000/svg" xmlns:xlink="http://www.w3.org/1999/xlink">
    <!-- Generator: Sketch 46.2 (44496) - http://www.bohemiancoding.com/sketch -->
    <title>note_2@1x</title>
    <desc>Created with Sketch.</desc>
    <defs></defs>
    <g id="Blocks-&amp;-Components" stroke="none" stroke-width="1" fill="none" fill-rule="evenodd">
        <g id="icons/music/style-2/black" transform="translate(-8.000000, -8.000000)">
            <g id="note_2">
                <rect id="frame" x="0" y="0" width="34" height="34"></rect>
                <path d="M13.7527719,11.2088053 C16.1513279,9.82567696 19.4208829,9 22.4999435,9 C23.3284661,9 24,9.67449078 24,10.5067164 L23.9989951,20.5508361 C23.9785044,21.5035725 23.2114783,22.4557673 22.0344679,22.8666116 C21.6539696,22.9991857 21.2674418,23.0624569 20.8969437,23.0624569 C19.8529264,23.0624569 18.9344019,22.5622205 18.6154,21.7205164 C18.1818859,20.5804283 19.0098937,19.2455289 20.4654149,18.738276 C20.8459377,18.6051849 21.2319508,18.5423815 21.6024489,18.5423815 C21.9184606,18.5423815 22.2199621,18.5936385 22.499968,18.6804703 L22.499968,15.0267672 C19.9604287,15.0267672 17.1808597,15.7198455 15.2468234,16.8358068 L14.4997976,17.2666911 L14.4987927,22.5597585 C14.4782776,23.5124949 13.7112514,24.4646897 12.5342411,24.875534 C12.1537428,25.0086251 11.7672394,25.0714286 11.3967168,25.0714286 C10.3526995,25.0714286 9.43417504,24.5711921 9.11517315,23.7294389 C8.68165901,22.5893508 9.50969135,21.2544514 10.9652126,20.7471985 C11.3457354,20.6141073 11.7317485,20.5513039 12.1022466,20.5513039 C12.4182337,20.5513039 12.7197597,20.602561 12.9997657,20.6894419 L12.9997657,12.5156142 C12.9997657,11.9762087 13.2867571,11.477991 13.7527719,11.2088053 Z" id="icon" stroke="#000000" stroke-width="0.33" fill="#000000"></path>
            </g>
        </g>
    </g>
</svg>