<?xml version="1.0" encoding="UTF-8"?>
<svg width="20px" height="16px" viewBox="0 0 20 16" version="1.1" xmlns="http://www.w3.org/2000/svg" xmlns:xlink="http://www.w3.org/1999/xlink">
    <!-- Generator: Sketch 46.2 (44496) - http://www.bohemiancoding.com/sketch -->
    <title>playlists</title>
    <desc>Created with Sketch.</desc>
    <defs></defs>
    <g id="Blocks-&amp;-Components" stroke="none" stroke-width="1" fill="none" fill-rule="evenodd">
        <g id="icons/playlist/black" transform="translate(-7.000000, -9.000000)">
            <g id="playlists">
                <rect id="frame" x="0" y="0" width="34" height="34"></rect>
                <g id="shapes" transform="translate(8.000000, 10.000000)" stroke="#000000" stroke-width="0.33" fill="#000000">
                    <path d="M9.119069,1.92411482 C11.1978175,0.719256375 14.0314318,0 16.6999511,0 C17.4180039,0 18,0.587556411 18,1.31251742 L17.9991291,10.0620617 C17.9813705,10.8920009 17.3166145,11.7214684 16.2965389,12.0793594 C15.9667737,12.1948462 15.6317829,12.2499625 15.3106845,12.2499625 C14.4058695,12.2499625 13.609815,11.8142009 13.3333467,11.0809832 C12.9576344,10.0878398 13.6752412,8.9249941 14.9366929,8.48312046 C15.2664794,8.36718331 15.6010241,8.31247453 15.9221224,8.31247453 C16.1959992,8.31247453 16.4573005,8.35712513 16.6999723,8.43276522 L16.6999723,5.24998392 C14.4990382,5.24998392 12.0900784,5.85373207 10.4139136,6.82585838 L9.76649129,7.20120649 L9.76562036,11.8120563 C9.74784057,12.6419956 9.08308458,13.471463 8.06300893,13.8293541 C7.73324373,13.9452912 7.39827418,14 7.0771546,14 C6.17233957,14 5.37628503,13.5642385 5.09981673,12.8309778 C4.72410448,11.8378344 5.44173251,10.6749887 6.70318421,10.2331151 C7.03297065,10.1171779 7.36751536,10.0624692 7.6886137,10.0624692 C7.9624692,10.0624692 8.22379176,10.1071198 8.4664636,10.1828027 L8.4664636,3.06249062 C8.4664636,2.59260848 8.71518949,2.15860552 9.119069,1.92411482 Z M9.76649129,5.68748258 L9.76649129,3.06249062 C11.744254,1.91581521 14.4188486,1.31249598 16.6999511,1.31249598 L16.6999511,3.93748794 C14.4188273,3.93748794 11.744254,4.54078572 9.76649129,5.68748258 Z"></path>
                    <rect id="Rectangle" x="0" y="1" width="6" height="1.0102895" rx="0.50514475"></rect>
                    <rect id="Rectangle-Copy-2" x="0" y="4" width="6" height="1.0102895" rx="0.50514475"></rect>
                    <rect id="Rectangle-Copy-3" x="0" y="7" width="6" height="1.0102895" rx="0.50514475"></rect>
                </g>
            </g>
        </g>
    </g>
</svg>