<?xml version="1.0" encoding="UTF-8"?>
<svg width="16px" height="16px" viewBox="0 0 16 16" version="1.1" xmlns="http://www.w3.org/2000/svg" xmlns:xlink="http://www.w3.org/1999/xlink">
    <!-- Generator: Sketch 46.2 (44496) - http://www.bohemiancoding.com/sketch -->
    <title>video_2@1x</title>
    <desc>Created with Sketch.</desc>
    <defs></defs>
    <g id="Blocks-&amp;-Components" stroke="none" stroke-width="1" fill="none" fill-rule="evenodd">
        <g id="icons/video/style-2/black" transform="translate(-9.000000, -9.000000)">
            <g id="video_2">
                <rect id="frame" x="0" y="0" width="34" height="34"></rect>
                <path d="M23,24.8292943 L23,24 C23,23.4477153 22.5522847,23 22,23 L21,23 C20.4477153,23 20,23.4477153 20,24 L20,25 L14,25 L14,24 C14,23.4477153 13.5522847,23 13,23 L12,23 C11.4477153,23 11,23.4477153 11,24 L11,24.8292943 C9.83480763,24.4174579 9,23.3062188 9,22 L9,12 L9,12 C9,10.6937812 9.83480763,9.58254212 11,9.17070571 L11,10 C11,10.5522847 11.4477153,11 12,11 L13,11 C13.5522847,11 14,10.5522847 14,10 L14,9 L20,9 L20,9 L20,10 C20,10.5522847 20.4477153,11 21,11 L22,11 C22.5522847,11 23,10.5522847 23,10 L23,9.17070571 C24.1651924,9.58254212 25,10.6937812 25,12 L25,22 C25,23.3062188 24.1651924,24.4174579 23,24.8292943 Z M12,13 C11.4477153,13 11,13.4477153 11,14 L11,15 C11,15.5522847 11.4477153,16 12,16 L13,16 C13.5522847,16 14,15.5522847 14,15 L14,14 C14,13.4477153 13.5522847,13 13,13 L12,13 Z M12,18 C11.4477153,18 11,18.4477153 11,19 L11,20 C11,20.5522847 11.4477153,21 12,21 L13,21 C13.5522847,21 14,20.5522847 14,20 L14,19 C14,18.4477153 13.5522847,18 13,18 L12,18 Z M21,13 C20.4477153,13 20,13.4477153 20,14 L20,15 C20,15.5522847 20.4477153,16 21,16 L22,16 C22.5522847,16 23,15.5522847 23,15 L23,14 C23,13.4477153 22.5522847,13 22,13 L21,13 Z M21,18 C20.4477153,18 20,18.4477153 20,19 L20,20 C20,20.5522847 20.4477153,21 21,21 L22,21 C22.5522847,21 23,20.5522847 23,20 L23,19 C23,18.4477153 22.5522847,18 22,18 L21,18 Z" id="shapes" fill="#1F111C"></path>
            </g>
        </g>
    </g>
</svg>