<?xml version="1.0" encoding="UTF-8"?>
<svg width="17px" height="19px" viewBox="0 0 17 19" version="1.1" xmlns="http://www.w3.org/2000/svg" xmlns:xlink="http://www.w3.org/1999/xlink">
    <!-- Generator: Sketch 46.2 (44496) - http://www.bohemiancoding.com/sketch -->
    <title>add to</title>
    <desc>Created with Sketch.</desc>
    <defs></defs>
    <g id="Blocks-&amp;-Components" stroke="none" stroke-width="1" fill="none" fill-rule="evenodd">
        <g id="icons/add/style-1/white" transform="translate(-6.000000, -5.000000)">
            <g id="add-to">
                <rect id="frame" x="0" y="0" width="28" height="28"></rect>
                <g id="shapes" transform="translate(6.000000, 5.000000)" fill="#FFFFFF">
                    <path d="M6.85256371,6.51839399 L6.85256371,1.62385381 L6.85256371,1.62385381 C6.85256371,0.727024115 7.57958783,-5.73000848e-17 8.47641752,-2.22044605e-16 L8.47641752,-3.31820075e-16 L8.47641752,-2.22044605e-16 C9.37324722,-3.86789125e-16 10.1002713,0.727024115 10.1002713,1.62385381 L10.1002713,6.51839399 L10.1002713,6.51839399 C10.1002713,7.07067874 10.5479866,7.51839399 11.1002713,7.51839399 L15.3787624,7.51839399 L15.3787624,7.51839399 C16.2741472,7.51839399 17,8.24424681 17,9.13963164 L17,9.13963164 L17,9.13963164 C17,10.0350165 16.2741472,10.7608693 15.3787624,10.7608693 L11.1002713,10.7608693 L11.1002713,10.7608693 C10.5479866,10.7608693 10.1002713,11.2085845 10.1002713,11.7608693 L10.1002713,16.6838385 L10.1002713,16.6838385 C10.1002713,17.5806682 9.37324722,18.3076923 8.47641752,18.3076923 L8.47641752,18.3076923 L8.47641752,18.3076923 C7.57958783,18.3076923 6.85256371,17.5806682 6.85256371,16.6838385 L6.85256371,11.7608693 L6.85256371,11.7608693 C6.85256371,11.2085845 6.40484846,10.7608693 5.85256371,10.7608693 L1.62123765,10.7608693 L1.62123765,10.7608693 C0.72585282,10.7608693 1.09653017e-16,10.0350165 0,9.13963164 L0,9.13963164 L0,9.13963164 C-1.09653017e-16,8.24424681 0.72585282,7.51839399 1.62123765,7.51839399 L5.85256371,7.51839399 L5.85256371,7.51839399 C6.40484846,7.51839399 6.85256371,7.07067874 6.85256371,6.51839399 Z" id="icon"></path>
                </g>
            </g>
        </g>
    </g>
</svg>