<?xml version="1.0" encoding="UTF-8"?>
<svg width="17px" height="11px" viewBox="0 0 17 11" version="1.1" xmlns="http://www.w3.org/2000/svg" xmlns:xlink="http://www.w3.org/1999/xlink">
    <!-- Generator: Sketch 46.2 (44496) - http://www.bohemiancoding.com/sketch -->
    <title>minimize</title>
    <desc>Created with Sketch.</desc>
    <defs></defs>
    <g id="Blocks-&amp;-Components" stroke="none" stroke-width="1" fill="none" fill-rule="evenodd">
        <g id="icons/minimize/style-1/white" transform="translate(-6.000000, -9.000000)">
            <g id="minimize">
                <rect id="frame" x="0" y="0" width="28" height="28"></rect>
                <g id="shapes" transform="translate(5.000000, 9.000000)" fill="#FFFFFF">
                    <path d="M8.28908319,9.5978858 L2.285002,2.64579179 L2.285002,2.64579179 C1.70742714,1.9770209 1.78135613,0.966658046 2.45012702,0.389083188 C2.74074116,0.138098252 3.11192661,-8.17640196e-16 3.49591882,-8.8817842e-16 L15.5040812,0 L15.5040812,-1.99840144e-15 C16.3877368,-2.16072634e-15 17.1040812,0.7163444 17.1040812,1.6 C17.1040812,1.98399221 16.9659829,2.35517766 16.714998,2.64579179 L10.7109168,9.5978858 L10.7109168,9.5978858 C10.133342,10.2666567 9.1229791,10.3405857 8.45420821,9.76301082 C8.39521795,9.71206468 8.34002932,9.65687606 8.28908319,9.5978858 Z" id="icon"></path>
                </g>
            </g>
        </g>
    </g>
</svg>