<?xml version="1.0" encoding="UTF-8"?>
<svg width="16px" height="20px" viewBox="0 0 16 20" version="1.1" xmlns="http://www.w3.org/2000/svg" xmlns:xlink="http://www.w3.org/1999/xlink">
    <!-- Generator: Sketch 46.2 (44496) - http://www.bohemiancoding.com/sketch -->
    <title>share</title>
    <desc>Created with Sketch.</desc>
    <defs></defs>
    <g id="Blocks-&amp;-Components" stroke="none" stroke-width="1" fill="none" fill-rule="evenodd">
        <g id="icons/share/small/white" transform="translate(-6.000000, -4.000000)">
            <g id="share">
                <rect id="frame" x="0" y="0" width="28" height="28"></rect>
                <g id="shapes" transform="translate(7.000000, 5.000000)">
                    <path d="M11.9989566,8 C13.1041023,8 14,8.7516253 14,9.67377517 L14,16.3262248 C14,17.2506253 13.1029399,18 11.9941413,18 L2.00585866,18 C0.898053512,18 0,17.2483747 0,16.3262248 L0,9.67377517 C0,8.74937467 0.901185662,8 2.00585866,8" id="Rectangle" stroke="#FFFFFF" stroke-width="2" stroke-linecap="round" stroke-linejoin="round"></path>
                    <rect id="2" fill="#FFFFFF" x="6" y="1" width="2" height="10" rx="1"></rect>
                    <path d="M3,4 L3.13193449,3.85573706 L6.41385797,0.267138352 C6.73844387,-0.0877780691 7.26144335,-0.0913407686 7.59210433,0.270218405 L11,3.99656062" id="3" stroke="#FFFFFF" stroke-width="2" stroke-linecap="round" stroke-linejoin="round"></path>
                </g>
            </g>
        </g>
    </g>
</svg>