<?xml version="1.0" encoding="UTF-8"?>
<svg width="21px" height="22px" viewBox="0 0 21 22" version="1.1" xmlns="http://www.w3.org/2000/svg" xmlns:xlink="http://www.w3.org/1999/xlink">
    <!-- Generator: Sketch 46.2 (44496) - http://www.bohemiancoding.com/sketch -->
    <title>browse@1x</title>
    <desc>Created with Sketch.</desc>
    <defs></defs>
    <g id="Blocks-&amp;-Components" stroke="none" stroke-width="1" fill="none" fill-rule="evenodd">
        <g id="icons/tabbed-menu/browse/white" transform="translate(-4.000000, -13.000000)">
            <g id="browse">
                <rect id="Frame" x="0" y="0" width="49" height="49"></rect>
                <path d="M22.899921,13 C18.589236,13 14.0118591,14.13026 10.6538807,16.023609 C10.0014599,16.3920944 9.59967197,17.074099 9.59967197,17.8124853 L9.59967197,29.0015472 C9.20766362,28.8826168 8.78552718,28.8124516 8.34314521,28.8124516 C7.82444788,28.8124516 7.28402951,28.8984225 6.75129757,29.0806094 C4.71356789,29.7749823 3.55432261,31.6023113 4.1612424,33.1629652 C4.60784505,34.3152319 5.89377931,35 7.35540358,35 C7.87413522,35 8.41523988,34.9140291 8.9479375,34.7318421 C10.595752,34.1694419 11.6695886,32.8659931 11.6983098,31.5618028 L11.6997167,24.3161816 L12.7455527,23.7263489 C15.4532035,22.1987218 19.3446001,21.2499747 22.8999553,21.2499747 L22.8999553,26.2514882 C22.5079469,26.1326252 22.0858448,26.06246 21.6434285,26.06246 C21.1247312,26.06246 20.5843128,26.1484309 20.0515809,26.3306179 C18.0138512,27.0249907 16.8546402,28.8523197 17.46156,30.4129736 C17.9081627,31.5651729 19.1940969,32.249941 20.6557212,32.249941 C21.1744185,32.249941 21.7155575,32.1633298 22.2482551,31.9818505 C23.8960696,31.4194503 24.9699062,30.1160015 24.9985931,28.8118112 L25,15.0625274 C25,13.9233029 24.0598525,13 22.899921,13 Z" id="icon" fill="#FFFFFF"></path>
            </g>
        </g>
    </g>
</svg>