<?xml version="1.0" encoding="UTF-8"?>
<svg width="24px" height="22px" viewBox="0 0 24 22" version="1.1" xmlns="http://www.w3.org/2000/svg" xmlns:xlink="http://www.w3.org/1999/xlink">
    <!-- Generator: Sketch 46.2 (44496) - http://www.bohemiancoding.com/sketch -->
    <title>community@1x</title>
    <desc>Created with Sketch.</desc>
    <defs></defs>
    <g id="Blocks-&amp;-Components" stroke="none" stroke-width="1" fill="none" fill-rule="evenodd">
        <g id="icons/tabbed-menu/community/white" transform="translate(-15.000000, -13.000000)">
            <g id="community">
                <rect id="Frame" x="0" y="0" width="49" height="49"></rect>
                <path d="M19,13 L35,13 L35,13 C37.209139,13 39,14.790861 39,17 L39,25.8555768 L39,25.8555768 C39,28.0647158 37.209139,29.8555768 35,29.8555768 L30.6673558,29.8555768 L30.6673558,29.8555768 C28.8797297,29.8555768 27.1135809,30.2451803 25.4918609,30.997265 L17.841434,34.5452071 L17.841434,34.5452071 C16.8393774,35.0099182 15.6503273,34.5743137 15.1856161,33.5722572 C15.0633419,33.3085973 15,33.0214562 15,32.7308232 L15,17 L15,17 C15,14.790861 16.790861,13 19,13 L19,13 Z M20.3636364,17.4390434 C19.8113516,17.4390434 19.3636364,17.8867587 19.3636364,18.4390434 C19.3636364,18.9913282 19.8113516,19.4390434 20.3636364,19.4390434 L33.3636364,19.4390434 C33.9159211,19.4390434 34.3636364,18.9913282 34.3636364,18.4390434 C34.3636364,17.8867587 33.9159211,17.4390434 33.3636364,17.4390434 L20.3636364,17.4390434 Z M20.3636364,21.8780869 C19.8113516,21.8780869 19.3636364,22.3258021 19.3636364,22.8780869 C19.3636364,23.4303716 19.8113516,23.8780869 20.3636364,23.8780869 L26.3636364,23.8780869 C26.9159211,23.8780869 27.3636364,23.4303716 27.3636364,22.8780869 C27.3636364,22.3258021 26.9159211,21.8780869 26.3636364,21.8780869 L20.3636364,21.8780869 Z" id="icon" fill="#FFFFFF"></path>
            </g>
        </g>
    </g>
</svg>