<?xml version="1.0" encoding="UTF-8"?>
<svg width="24px" height="22px" viewBox="0 0 24 22" version="1.1" xmlns="http://www.w3.org/2000/svg" xmlns:xlink="http://www.w3.org/1999/xlink">
    <!-- Generator: Sketch 46.2 (44496) - http://www.bohemiancoding.com/sketch -->
    <title>library@1x</title>
    <desc>Created with Sketch.</desc>
    <defs></defs>
    <g id="Blocks-&amp;-Components" stroke="none" stroke-width="1" fill="none" fill-rule="evenodd">
        <g id="icons/tabbed-menu/library/white" transform="translate(-13.000000, -13.000000)">
            <g id="library">
                <rect id="Frame" x="0" y="0" width="49" height="49"></rect>
                <path d="M23.9118796,22.2400269 L23.9090909,22.2400269 L23.9090909,23.0700134 L23.9090909,27.35501 C23.7328491,27.3189366 23.5504359,27.3 23.3636364,27.3 C21.8574052,27.3 20.6363636,28.5312169 20.6363636,30.05 C20.6363636,31.5687831 21.8574052,32.8 23.3636364,32.8 C24.8698675,32.8 26.0909091,31.5687831 26.0909091,30.05 C26.0909091,30.0131687 26.090191,29.9765065 26.0887682,29.9400269 L26.0909091,29.9400269 L26.0909091,29.2200134 L26.0909091,24 L28.2727273,24 C28.8752197,24 29.3636364,23.5115834 29.3636364,22.9090909 L29.3636364,22.3363636 C29.3636364,21.432625 28.6310114,20.7 27.7272727,20.7 L25.5454545,20.7 C24.6740558,20.7 23.9617435,21.3811297 23.9118796,22.2400269 Z M16.2727273,16.3990967 L16.2727273,15.2102576 C16.2727273,13.989566 17.2485605,13 18.4480658,13 L31.5519342,13 C32.7533405,13 33.7272727,13.9920148 33.7272727,15.1915072 L33.7272727,16.4297119 L16.2727273,16.3990967 Z M16,18.5 L34,18.5 C35.6568542,18.5 37,19.8431458 37,21.5 L37,32 L37,32 C37,33.6568542 35.6568542,35 34,35 L16,35 C14.3431458,35 13,33.6568542 13,32 L13,21.5 L13,21.5 C13,19.8431458 14.3431458,18.5 16,18.5 Z" id="icon" fill="#FFFFFF"></path>
            </g>
        </g>
    </g>
</svg>