<?xml version="1.0" encoding="UTF-8"?>
<svg width="25px" height="22px" viewBox="0 0 25 22" version="1.1" xmlns="http://www.w3.org/2000/svg" xmlns:xlink="http://www.w3.org/1999/xlink">
    <!-- Generator: Sketch 46.2 (44496) - http://www.bohemiancoding.com/sketch -->
    <title>news@1x</title>
    <desc>Created with Sketch.</desc>
    <defs></defs>
    <g id="Blocks-&amp;-Components" stroke="none" stroke-width="1" fill="none" fill-rule="evenodd">
        <g id="icons/tabbed-menu/news/white" transform="translate(-19.000000, -13.000000)">
            <g id="news">
                <rect id="Frame" x="0" y="0" width="49" height="49"></rect>
                <g id="icon" transform="translate(19.000000, 13.000000)">
                    <path d="M10,0 L21,0 L21,0 C23.209139,-4.05812251e-16 25,1.790861 25,4 L25,18 L25,18 C25,20.209139 23.209139,22 21,22 L9,22 L9,22 C7.34314575,22 6,20.6568542 6,19 L6,4 L6,4 C6,1.790861 7.790861,4.05812251e-16 10,0 Z M12,5 L19,5 L19,5 C20.1045695,5 21,5.8954305 21,7 L21,7 L21,7 C21,8.1045695 20.1045695,9 19,9 L12,9 L12,9 C10.8954305,9 10,8.1045695 10,7 L10,7 L10,7 C10,5.8954305 10.8954305,5 12,5 Z M11,11 L19,11 L19,11 C19.5522847,11 20,11.4477153 20,12 L20,12 L20,12 C20,12.5522847 19.5522847,13 19,13 L11,13 L11,13 C10.4477153,13 10,12.5522847 10,12 L10,12 L10,12 C10,11.4477153 10.4477153,11 11,11 Z M11,15 L16,15 L16,15 C16.5522847,15 17,15.4477153 17,16 L17,16 L17,16 C17,16.5522847 16.5522847,17 16,17 L11,17 L11,17 C10.4477153,17 10,16.5522847 10,16 L10,16 L10,16 C10,15.4477153 10.4477153,15 11,15 Z" id="Combined-Shape" fill="#FFFFFF"></path>
                    <path d="M4,7 C2.34314575,7 1,8.34314575 1,10 L1,18 C1,19.6568542 2.34314575,21 4,21 L5,21 C6.1045695,21 7,20.1045695 7,19 L7,8 C7,7.44771525 6.55228475,7 6,7 L4,7 Z" id="Rectangle-8-Copy" stroke="#FFFFFF" stroke-width="2"></path>
                    <rect id="Rectangle-9" fill="#FFFFFF" x="5" y="20" width="4" height="2"></rect>
                </g>
            </g>
        </g>
    </g>
</svg>