<?xml version="1.0" encoding="UTF-8"?>
<svg width="24px" height="22px" viewBox="0 0 24 22" version="1.1" xmlns="http://www.w3.org/2000/svg" xmlns:xlink="http://www.w3.org/1999/xlink">
    <!-- Generator: Sketch 46.2 (44496) - http://www.bohemiancoding.com/sketch -->
    <title>videos@1x</title>
    <desc>Created with Sketch.</desc>
    <defs></defs>
    <g id="Blocks-&amp;-Components" stroke="none" stroke-width="1" fill="none" fill-rule="evenodd">
        <g id="icons/tabbed-menu/videos/white" transform="translate(-7.000000, -13.000000)">
            <g id="videos">
                <rect id="Frame" x="0" y="0" width="49" height="49"></rect>
                <path d="M13,13 L25,13 C28.3137085,13 31,15.6862915 31,19 L31,29 C31,32.3137085 28.3137085,35 25,35 L13,35 C9.6862915,35 7,32.3137085 7,29 L7,19 L7,19 C7,15.6862915 9.6862915,13 13,13 L13,13 Z M23.3346251,25.554802 L23.3346251,25.554802 C23.6028316,25.3983482 23.8260055,25.1751744 23.9824593,24.9069678 C24.4833638,24.0482744 24.1933186,22.9461025 23.3346251,22.445198 L23.3346251,22.445198 L16.7069678,18.5790646 C16.4316829,18.4184817 16.1186983,18.3338666 15.8,18.3338666 C14.8058875,18.3338666 14,19.139754 14,20.1338666 L14,27.8661334 C14,28.1848317 14.0846151,28.4978163 14.245198,28.7731012 C14.7461025,29.6317947 15.8482744,29.9218399 16.7069678,29.4209354 L16.7069678,29.4209354 L23.3346251,25.554802 Z" id="icon" fill="#FFFFFF"></path>
            </g>
        </g>
    </g>
</svg>