<?xml version="1.0" encoding="UTF-8"?>
<svg width="13px" height="14px" viewBox="0 0 13 14" version="1.1" xmlns="http://www.w3.org/2000/svg" xmlns:xlink="http://www.w3.org/1999/xlink">
    <!-- Generator: Sketch 46.2 (44496) - http://www.bohemiancoding.com/sketch -->
    <title>icon</title>
    <desc>Created with Sketch.</desc>
    <defs></defs>
    <g id="Blocks-&amp;-Components" stroke="none" stroke-width="1" fill="none" fill-rule="evenodd">
        <g id="icons/star/style-2/14x14/empty" stroke-width="0.3" stroke="#FFFFFF" fill="#FFFFFF">
            <g id="icon">
                <path d="M12.477164,5.47449314 C12.3782288,5.16617696 12.1229453,4.94072272 11.814764,4.88949314 L8.81476397,4.41049314 L7.51396397,1.50099314 C7.37776686,1.19545838 7.08375598,1 6.76036397,1 C6.43697197,1 6.14296109,1.19545838 6.00676397,1.50099314 L4.70596397,4.40949314 L1.70596397,4.88849314 C1.39740838,4.93997152 1.14192709,5.16589712 1.04307942,5.47469103 C0.944231744,5.78348495 1.01841691,6.12391701 1.23556397,6.35799314 L3.43396397,8.71599314 L2.92516397,11.9874931 C2.87120239,12.3161042 3.00301316,12.6478211 3.26414433,12.840576 C3.52527549,13.0333309 3.86941084,13.0529353 4.14916397,12.8909931 L6.76036397,11.3779931 L9.37156397,12.8909931 C9.49529482,12.9613626 9.63379714,12.9988049 9.77476397,12.9999931 C10.0198089,12.9995585 10.2522634,12.8868568 10.4103619,12.6918339 C10.5684605,12.4968111 10.6361936,12.2392156 10.595564,11.9874931 L10.086764,8.71599314 L12.285164,6.35799314 C12.5024116,6.12388262 12.5764389,5.78324113 12.477164,5.47449314 L12.477164,5.47449314 Z M9.41956397,8.08249314 C9.23749416,8.27464643 9.15532007,8.54632707 9.19876397,8.81249314 L9.69316397,12.0039931 L7.15396397,10.5289931 C6.90926664,10.3870024 6.61146131,10.3870024 6.36676397,10.5289931 L3.82756397,12.0039931 L4.32196397,8.81249314 C4.36540788,8.54632707 4.28323379,8.27464643 4.10116397,8.08249314 L1.96516397,5.78249314 L4.88356397,5.31449314 C5.15037014,5.26982118 5.37864079,5.09045497 5.49316397,4.83549314 L6.76036397,1.99849314 L8.02756397,4.83599314 C8.14220994,5.09076199 8.37045912,5.26992412 8.63716397,5.31449314 L11.555564,5.78299314 L9.41956397,8.08249314 Z" id="path"></path>
            </g>
        </g>
    </g>
</svg>