<?xml version="1.0" encoding="UTF-8"?>
<svg width="12px" height="12px" viewBox="0 0 12 12" version="1.1" xmlns="http://www.w3.org/2000/svg" xmlns:xlink="http://www.w3.org/1999/xlink">
    <!-- Generator: Sketch 46.2 (44496) - http://www.bohemiancoding.com/sketch -->
    <title>icon</title>
    <desc>Created with Sketch.</desc>
    <defs></defs>
    <g id="Blocks-&amp;-Components" stroke="none" stroke-width="1" fill="none" fill-rule="evenodd">
        <g id="icons/star/style-2/14x14/fill" transform="translate(-1.000000, -1.000000)" fill="#FFFFFF">
            <g id="icon">
                <g id="shapes" transform="translate(1.000000, 1.000000)">
                    <path d="M11.477164,4.47449314 C11.3782288,4.16617696 11.1229453,3.94072272 10.814764,3.88949314 L7.81476397,3.41049314 L6.51396397,0.500993141 C6.37776686,0.195458376 6.08375598,0 5.76036397,0 C5.43697197,0 5.14296109,0.195458376 5.00676397,0.500993141 L3.70596397,3.40949314 L0.705963975,3.88849314 C0.39740838,3.93997152 0.141927093,4.16589712 0.0430794185,4.47469103 C-0.0557682562,4.78348495 0.0184169118,5.12391701 0.235563975,5.35799314 L2.43396397,7.71599314 L1.92516397,10.9874931 C1.87120239,11.3161042 2.00301316,11.6478211 2.26414433,11.840576 C2.52527549,12.0333309 2.86941084,12.0529353 3.14916397,11.8909931 L5.76036397,10.3779931 L8.37156397,11.8909931 C8.49529482,11.9613626 8.63379714,11.9988049 8.77476397,11.9999931 C9.01980893,11.9995585 9.2522634,11.8868568 9.41036194,11.6918339 C9.56846047,11.4968111 9.6361936,11.2392156 9.59556397,10.9874931 L9.08676397,7.71599314 L11.285164,5.35799314 C11.5024116,5.12388262 11.5764389,4.78324113 11.477164,4.47449314 L11.477164,4.47449314 Z M8.41956397,7.08249314 C8.23749416,7.27464643 8.15532007,7.54632707 8.19876397,7.81249314 L8.69316397,11.0039931 L6.15396397,9.52899314 C5.90926664,9.38700243 5.61146131,9.38700243 5.36676397,9.52899314 L2.82756397,11.0039931 L3.32196397,7.81249314 C3.36540788,7.54632707 3.28323379,7.27464643 3.10116397,7.08249314 L0.965163975,4.78249314 L3.88356397,4.31449314 C4.15037014,4.26982118 4.37864079,4.09045497 4.49316397,3.83549314 L5.76036397,0.998493141 L7.02756397,3.83599314 C7.14220994,4.09076199 7.37045912,4.26992412 7.63716397,4.31449314 L10.555564,4.78299314 L8.41956397,7.08249314 Z" id="path"></path>
                    <path d="M3.83915819,3.94973839 C3.83915819,3.84201309 4.41193139,2.6735456 5.55747779,0.444335938 L7.13423192,3.70377505 L10.5355078,4.59135548 L10.5355078,5.02670816 L8.35376059,7.52907553 L8.76520978,11.1512681 L8.35376059,11.4443359 L5.38054902,9.6769449 L2.84707729,11.3082427 L2.18516612,11.1512681 L2.84707729,7.37853528 L0.455507812,4.85164442 L0.67038196,4.37853528 C2.78289945,4.20039599 3.83915819,4.05746369 3.83915819,3.94973839 Z" id="path"></path>
                </g>
            </g>
        </g>
    </g>
</svg>