<?xml version="1.0" encoding="UTF-8"?>
<svg width="26px" height="27px" viewBox="0 0 22 22" version="1.1" xmlns="http://www.w3.org/2000/svg" xmlns:xlink="http://www.w3.org/1999/xlink">
    <!-- Generator: Sketch 46.2 (44496) - http://www.bohemiancoding.com/sketch -->
    <title>1</title>
    <desc>Created with Sketch.</desc>
    <defs></defs>
    <g id="Blocks-&amp;-Components" stroke="none" stroke-width="1" fill="none" fill-rule="evenodd">
        <g id="blocks/music-player/single-elements/reviews/headers/rating/style-2" transform="translate(-208.000000, -39.000000)" stroke="#FFFFFF" fill="#FFFFFF">
            <g id="ratings" transform="translate(83.000000, 27.000000)">
                <g id="stars" transform="translate(0.000000, 11.000000)">
                    <g id="stars-copy-4" transform="translate(124.000000, 0.000000)">
                        <g id="icons/star/style-2/14x14/empty">
                            <g id="icon">
                                <path d="M22.28065,9.38484539 C22.1039801,8.85630336 21.6481165,8.46981037 21.0977928,8.38198824 L15.74065,7.56084539 L13.4177928,2.5731311 C13.1745837,2.04935722 12.6495643,1.71428571 12.0720785,1.71428571 C11.4945928,1.71428571 10.9695734,2.04935722 10.7263642,2.5731311 L8.4035071,7.5591311 L3.04636424,8.38027396 C2.49537211,8.4685226 2.03915552,8.85582363 1.86264182,9.38518463 C1.68612811,9.91454562 1.81860163,10.4981435 2.20636424,10.8994168 L6.13207853,14.9417025 L5.2235071,20.5499882 C5.12714712,21.1133215 5.3625235,21.681979 5.82882915,22.012416 C6.29513481,22.342853 6.90966221,22.3764606 7.40922138,22.0988454 L12.0720785,19.5051311 L16.7349357,22.0988454 C16.9558836,22.2194787 17.2032092,22.2836655 17.4549357,22.2857025 C17.8925159,22.2849575 18.3076132,22.0917545 18.589932,21.7574296 C18.8722508,21.4231047 18.9932029,20.9815124 18.92065,20.5499882 L18.0120785,14.9417025 L21.9377928,10.8994168 C22.325735,10.4980845 22.4579267,9.91412765 22.28065,9.38484539 L22.28065,9.38484539 Z M16.82065,13.8557025 C16.4955253,14.1851082 16.3487858,14.6508464 16.4263642,15.1071311 L17.3092214,20.578274 L12.7749357,18.0497025 C12.3379761,17.8062899 11.8061809,17.8062899 11.3692214,18.0497025 L6.83493567,20.578274 L7.71779281,15.1071311 C7.79537122,14.6508464 7.64863177,14.1851082 7.3235071,13.8557025 L3.50922138,9.91284539 L8.72064996,9.11055967 C9.19708954,9.03397916 9.60471569,8.72649424 9.80922138,8.28941681 L12.0720785,3.42598824 L14.3349357,8.29027396 C14.5396606,8.72702056 14.9472484,9.03415563 15.4235071,9.11055967 L20.6349357,9.91370253 L16.82065,13.8557025 Z" id="path" stroke-width="0.3"></path>
                            </g>
                        </g>
                    </g>
                </g>
            </g>
        </g>
    </g>
</svg>