<?xml version="1.0" encoding="UTF-8"?>
<svg width="26px" height="27px" viewBox="0 0 22 22" version="1.1" xmlns="http://www.w3.org/2000/svg" xmlns:xlink="http://www.w3.org/1999/xlink">
    <!-- Generator: Sketch 46.2 (44496) - http://www.bohemiancoding.com/sketch -->
    <title>1</title>
    <desc>Created with Sketch.</desc>
    <defs></defs>
    <g id="Blocks-&amp;-Components" stroke="none" stroke-width="1" fill="none" fill-rule="evenodd">
        <g id="blocks/music-player/single-elements/reviews/headers/rating/style-2" transform="translate(-84.000000, -39.000000)" fill="#FFFFFF">
            <g id="ratings" transform="translate(83.000000, 27.000000)">
                <g id="stars" transform="translate(0.000000, 11.000000)">
                    <g id="icons/star/style-2/18x18/fill">
                        <g>
                            <g id="shapes" transform="translate(1.388889, 1.333333)">
                                <path d="M20.0273407,6.91465447 L14.4717851,6.06309892 L12.0628962,0.890654474 C11.8106794,0.347481557 11.2662148,0 10.6673407,0 C10.0684666,0 9.52400202,0.347481557 9.27178514,0.890654474 L6.86289625,6.06132114 L1.30734069,6.9128767 C0.735941444,7.00439381 0.26282795,7.40603932 0.0797767009,7.95500628 C-0.103274548,8.50397324 0.0341053922,9.1091858 0.436229583,9.52532114 L4.50734069,13.7173211 L3.56511847,19.5333211 C3.46518961,20.1175186 3.70928363,20.7072375 4.19285986,21.0499129 C4.6764361,21.3925883 5.31372378,21.4274406 5.83178514,21.1395434 L10.6673407,18.4497656 L15.5028962,21.1395434 C15.7320274,21.2646445 15.9885132,21.3312087 16.2495629,21.3333211 C16.7033499,21.3325485 17.1338211,21.1321899 17.4265962,20.7854826 C17.7193712,20.4387753 17.844803,19.9808277 17.7695629,19.5333211 L16.8273407,13.7173211 L20.8984518,9.52532114 C21.3007622,9.10912466 21.4378499,8.50353979 21.2540074,7.95465447 C21.0707941,7.40653682 20.5980468,7.00572928 20.0273407,6.91465447 Z M15.5917851,12.5910989 C15.2546188,12.9327048 15.1024446,13.4156926 15.1828962,13.8888767 L16.0984518,19.5626545 L11.3962296,16.9404323 C10.9430864,16.6880043 10.391595,16.6880043 9.93845181,16.9404323 L5.23622958,19.5626545 L6.15178514,13.8888767 C6.23223682,13.4156926 6.08006258,12.9327048 5.74289625,12.5910989 L1.78734069,8.50221003 L7.19178514,7.67021003 C7.68587064,7.5907932 8.10859405,7.27191995 8.32067403,6.81865447 L10.6673407,1.77509892 L13.0140074,6.81954336 C13.2263147,7.27246577 13.6489984,7.59097621 14.1428962,7.67021003 L19.5473407,8.50309892 L15.5917851,12.5910989 Z" id="path"></path>
                                <path d="M6.9925944,6.93408203 C6.9925944,6.74257038 8.19290613,4.59711682 10.5935296,0.497721354 L13.9165243,6.41520182 L19.5563422,7.78406272 L20.7828098,8.8453776 L16.619534,13.4586589 L17.2485352,20.1035426 L15.469927,20.3454861 L9.96397967,17.2034576 L5.27236535,20.6972656 L4.04660392,19.8244766 L4.99674479,13.4586589 L0.843532986,8.62514564 L1.24144807,7.78406272 C2.93340703,7.29076785 4.07203151,7.00744095 4.65732151,6.93408203 C6.25230183,6.73417081 6.9925944,7.05760317 6.9925944,6.93408203 Z" id="path"></path>
                            </g>
                        </g>
                    </g>
                </g>
            </g>
        </g>
    </g>
</svg>