<?xml version="1.0" encoding="UTF-8"?>
<svg width="19px" height="19px" viewBox="0 0 19 19" version="1.1" xmlns="http://www.w3.org/2000/svg" xmlns:xlink="http://www.w3.org/1999/xlink">
    <!-- Generator: Sketch 46.2 (44496) - http://www.bohemiancoding.com/sketch -->
    <title>best@1x</title>
    <desc>Created with Sketch.</desc>
    <defs></defs>
    <g id="Blocks-&amp;-Components" stroke="none" stroke-width="1" fill="none" fill-rule="evenodd">
        <g id="icons/star/style-1/white" transform="translate(-3.000000, 1.000000)">
            <g id="best" transform="translate(-2.000000, -1.000000)">
                <rect id="frame" opacity="0.530061141" x="0" y="0" width="29" height="23"></rect>
                <path d="M19.8537133,19 C19.6955219,19 19.5369119,18.9529096 19.3979713,18.8585097 L14.4998954,15.5330498 L9.60161019,18.8587287 C9.30950006,19.0571656 8.93034278,19.0457763 8.64953204,18.8287223 C8.36893054,18.6127634 8.24589275,18.2371352 8.34047282,17.8858187 L9.87467876,12.1880966 L5.29633369,8.13306359 C5.03665699,7.90286808 4.93579948,7.53118228 5.04126045,7.19256928 C5.14672141,6.85395629 5.43757606,6.61587587 5.77697623,6.59046894 L11.2678516,6.17629225 L13.7386513,0.512299995 C13.8746625,0.200189053 14.1722131,0 14.4998954,0 C14.8275777,0 15.1253375,0.200189053 15.2613487,0.512299995 L17.7323577,6.17629225 L23.2230238,6.59046894 C23.5624239,6.61587587 23.8532786,6.85395629 23.9587396,7.19256928 C24.0642005,7.53118228 23.963343,7.90286808 23.7036663,8.13306359 L19.125112,12.1880966 L20.6593179,17.8860377 C20.753898,18.2373542 20.6308602,18.6125444 20.3502587,18.8289413 C20.2027389,18.9423964 20.0282261,19 19.8537133,19 Z" id="Shapes" fill="#FFFFFF"></path>
            </g>
        </g>
    </g>
</svg>