<?xml version="1.0" encoding="UTF-8"?>
<svg width="28px" height="23px" viewBox="0 0 28 23" version="1.1" xmlns="http://www.w3.org/2000/svg" xmlns:xlink="http://www.w3.org/1999/xlink">
    <!-- Generator: Sketch 46.2 (44496) - http://www.bohemiancoding.com/sketch -->
    <title>favorite artists@1x</title>
    <desc>Created with Sketch.</desc>
    <defs>
        <path d="M20.3748473,19.0298828 C20.2749369,19.0298828 20.1747622,19.0001415 20.0870103,18.9405205 L16.9934886,16.84023 L13.8998348,18.9406589 C13.7153442,19.0659874 13.4758764,19.0587941 13.2985223,18.9217074 C13.1213003,18.7853123 13.0435922,18.5480734 13.103327,18.3261894 L14.0722992,14.727628 L11.1807128,12.1665546 C11.0167065,12.0211679 10.953007,11.786419 11.0196139,11.5725581 C11.0862208,11.3586973 11.2699185,11.2083307 11.4842765,11.1922843 L14.9521978,10.930699 L16.5127029,7.3534407 C16.5986047,7.156318 16.7865314,7.02988281 16.9934886,7.02988281 C17.2004458,7.02988281 17.3885047,7.156318 17.4744065,7.3534407 L19.0350437,10.930699 L22.5028329,11.1922843 C22.7171909,11.2083307 22.9008885,11.3586973 22.9674955,11.5725581 C23.0341024,11.786419 22.9704029,12.0211679 22.8063966,12.1665546 L19.914678,14.727628 L20.8836502,18.3263277 C20.943385,18.5482118 20.8656769,18.785174 20.6884549,18.9218457 C20.5952845,18.9935016 20.4850659,19.0298828 20.3748473,19.0298828 Z" id="path-1"></path>
    </defs>
    <g id="Blocks-&amp;-Components" stroke="none" stroke-width="1" fill="none" fill-rule="evenodd">
        <g id="icons/person/white/with-star" transform="translate(-1.000000, 2.000000)">
            <g id="favorite-artists" transform="translate(-2.000000, -2.000000)">
                <rect id="frame" opacity="0.530061141" x="0" y="0" width="29" height="23"></rect>
                <g id="shapes" transform="translate(5.000000, 0.000000)">
                    <g id="Group">
                        <path d="M16.5,18.7399682 C16.5,15.3051251 12.8063492,12.5206347 8.25,12.5206347 C3.69365081,12.5206347 -4.79616347e-14,15.3051251 -4.79616347e-14,18.7399682" id="Oval-5" stroke="#FFFFFF" stroke-width="2.8" stroke-linecap="round"></path>
                        <circle id="Oval-6" fill="#FFFFFF" cx="8.32693003" cy="6.00972786" r="5.4004718"></circle>
                    </g>
                    <g id="Shapes">
                        <use fill="#FFFFFF" fill-rule="evenodd" xlink:href="#path-1"></use>
                        <path stroke="#120810" stroke-width="3" d="M16.9934983,18.6532822 L14.7427245,20.1814396 C14.0211687,20.6716084 13.0714851,20.6420773 12.3836593,20.110415 C11.7213876,19.6007119 11.4388796,18.7386466 11.6549164,17.9361808 L12.3823597,15.2346074 L10.1856849,13.2890159 C9.57709994,12.7495238 9.34661864,11.8998277 9.58746643,11.126516 C9.83465774,10.3328367 10.5356775,9.75909782 11.371452,9.69653339 L13.9385361,9.50289826 L15.1375989,6.75420028 C15.4590228,6.01661441 16.1823305,5.52988281 16.9934886,5.52988281 C17.8045638,5.52988281 18.5280572,6.01654704 18.8492646,6.75363643 L20.0486751,9.50289862 L22.614807,9.6964695 C23.4514318,9.75909782 24.1524516,10.3328367 24.3996429,11.126516 C24.6404907,11.8998277 24.4100094,12.7495238 23.800914,13.2894682 L21.6046162,15.2346368 L22.3320792,17.9363872 C22.5480323,18.7385423 22.2657233,19.5997142 21.6029112,20.1108663 C21.2491729,20.3829206 20.817881,20.5298828 20.3748473,20.5298828 C19.9729627,20.5298828 19.5793368,20.4090559 19.2444519,20.1815263 L16.9934983,18.6532822 Z"></path>
                    </g>
                </g>
            </g>
        </g>
    </g>
</svg>