<?xml version="1.0" encoding="UTF-8"?>
<svg width="23px" height="21px" viewBox="0 0 23 21" version="1.1" xmlns="http://www.w3.org/2000/svg" xmlns:xlink="http://www.w3.org/1999/xlink">
    <!-- Generator: Sketch 46.2 (44496) - http://www.bohemiancoding.com/sketch -->
    <title>news@1x</title>
    <desc>Created with Sketch.</desc>
    <defs></defs>
    <g id="Blocks-&amp;-Components" stroke="none" stroke-width="1" fill="none" fill-rule="evenodd">
        <g id="icons/news/white" transform="translate(-1.000000, 1.000000)">
            <g id="news" transform="translate(-2.000000, -2.000000)">
                <rect id="frame" opacity="0.530061141" x="0" y="0" width="29" height="23"></rect>
                <g id="shapes" transform="translate(3.000000, 1.000000)">
                    <path d="M9.52,0 L19,0 L19,0 C21.209139,-4.05812251e-16 23,1.790861 23,4 L23,16.24 L23,16.24 C23,18.449139 21.209139,20.24 19,20.24 L8.52,20.24 L8.52,20.24 C6.86314575,20.24 5.52,18.8968542 5.52,17.24 L5.52,4 L5.52,4 C5.52,1.790861 7.310861,4.05812251e-16 9.52,0 Z M11.04,4.6 L17.48,4.6 L17.48,4.6 C18.4962039,4.6 19.32,5.42379606 19.32,6.44 L19.32,6.44 L19.32,6.44 C19.32,7.45620394 18.4962039,8.28 17.48,8.28 L11.04,8.28 L11.04,8.28 C10.0237961,8.28 9.2,7.45620394 9.2,6.44 L9.2,6.44 L9.2,6.44 C9.2,5.42379606 10.0237961,4.6 11.04,4.6 Z M10.12,10.12 L17.48,10.12 L17.48,10.12 C17.988102,10.12 18.4,10.531898 18.4,11.04 L18.4,11.04 L18.4,11.04 C18.4,11.548102 17.988102,11.96 17.48,11.96 L10.12,11.96 L10.12,11.96 C9.61189803,11.96 9.2,11.548102 9.2,11.04 L9.2,11.04 L9.2,11.04 C9.2,10.531898 9.61189803,10.12 10.12,10.12 Z M10.12,13.8 L14.72,13.8 L14.72,13.8 C15.228102,13.8 15.64,14.211898 15.64,14.72 L15.64,14.72 L15.64,14.72 C15.64,15.228102 15.228102,15.64 14.72,15.64 L10.12,15.64 L10.12,15.64 C9.61189803,15.64 9.2,15.228102 9.2,14.72 L9.2,14.72 L9.2,14.72 C9.2,14.211898 9.61189803,13.8 10.12,13.8 Z" id="Combined-Shape" fill="#FFFFFF"></path>
                    <path d="M3.68,6.52 C2.19987687,6.52 1,7.71987687 1,9.2 L1,16.56 C1,18.0401231 2.19987687,19.24 3.68,19.24 L4.36,19.24 C5.4645695,19.24 6.36,18.3445695 6.36,17.24 L6.36,7.52 C6.36,6.96771525 5.91228475,6.52 5.36,6.52 L3.68,6.52 Z" id="Rectangle-8-Copy" stroke="#FFFFFF" stroke-width="2"></path>
                    <rect id="Rectangle-9" fill="#FFFFFF" x="4.6" y="18.4" width="3.68" height="1.84"></rect>
                </g>
            </g>
        </g>
    </g>
</svg>