<?xml version="1.0" encoding="UTF-8"?>
<svg width="19px" height="21px" viewBox="0 0 19 21" version="1.1" xmlns="http://www.w3.org/2000/svg" xmlns:xlink="http://www.w3.org/1999/xlink">
    <!-- Generator: Sketch 46.2 (44496) - http://www.bohemiancoding.com/sketch -->
    <title>note_2@1x</title>
    <desc>Created with Sketch.</desc>
    <defs></defs>
    <g id="Blocks-&amp;-Components" stroke="none" stroke-width="1" fill="none" fill-rule="evenodd">
        <g id="icons/music/style-2/white" transform="translate(-2.000000, 1.000000)">
            <g id="note_2" transform="translate(-2.000000, -2.000000)">
                <rect id="frame" opacity="0.530061141" x="0" y="0" width="29" height="23"></rect>
                <path d="M20.4932666,2 C21.4727644,2 22.2666667,2.79739799 22.2666667,3.78127365 L22.2666667,15.6562373 L22.2654786,15.6556552 C22.2412541,16.7820013 21.3344588,17.9077071 19.942971,18.3934164 C19.4931374,18.5501484 19.0361756,18.6249491 18.5981646,18.6249491 C17.3639041,18.6249491 16.278004,18.0335584 15.9008729,17.0384772 C15.3883629,15.6906397 16.3672521,14.112492 18.0880016,13.5128063 C18.5378641,13.3554631 18.9942174,13.2812154 19.4322285,13.2812154 C19.8058245,13.2812154 20.1622663,13.3418127 20.4932956,13.4444671 L20.4932956,9.12497817 C17.4909957,9.12497817 14.2049274,9.94435066 11.9184667,11.2636649 L11.0353163,11.773066 L11.0353163,18.0312591 L11.0341283,18.0306479 C11.0098748,19.156994 10.1030795,20.2826998 8.71159167,20.7684091 C8.26175812,20.9257524 7.80482529,21 7.36678524,21 C6.13252475,21 5.04662471,20.4086093 4.66949359,19.4134699 C4.15698354,18.0656325 5.13590178,16.4874847 6.85665128,15.8877991 C7.30651381,15.7304558 7.7628671,15.6562082 8.20087817,15.6562082 C8.57444517,15.6562082 8.93091595,15.7168054 9.26194522,15.819518 L9.26194522,6.15623727 C9.26194522,5.51854008 9.60123284,4.92953606 10.1521659,4.61129868 C12.9877921,2.97613365 16.8531326,2 20.4932666,2 Z" id="shapes" stroke="#FFFFFF" stroke-width="0.33" fill="#FFFFFF"></path>
            </g>
        </g>
    </g>
</svg>