<?xml version="1.0" encoding="UTF-8"?>
<svg width="27px" height="21px" viewBox="0 0 27 21" version="1.1" xmlns="http://www.w3.org/2000/svg" xmlns:xlink="http://www.w3.org/1999/xlink">
    <!-- Generator: Sketch 46.2 (44496) - http://www.bohemiancoding.com/sketch -->
    <title>playlists@1x</title>
    <desc>Created with Sketch.</desc>
    <defs></defs>
    <g id="Blocks-&amp;-Components" stroke="none" stroke-width="1" fill="none" fill-rule="evenodd">
        <g id="icons/playlist/white" transform="translate(1.000000, 1.000000)">
            <g id="playlists" transform="translate(-2.000000, -2.000000)">
                <rect id="frame" opacity="0.530061141" x="0" y="0" width="29" height="23"></rect>
                <g id="shapes" transform="translate(2.000000, 2.000000)" stroke-width="0.5" stroke="#FFFFFF" fill="#FFFFFF">
                    <path d="M13.1587587,2.61129868 C15.9304234,0.976133652 19.7085757,0 23.2666014,0 C24.2240053,0 25,0.797397986 25,1.78127365 L24.9988388,13.6556552 C24.9751607,14.7820013 24.0888194,15.9077071 22.7287185,16.3934164 C22.2890316,16.5501484 21.8423772,16.6249491 21.4142461,16.6249491 C20.207826,16.6249491 19.14642,16.0335584 18.7777956,15.0384772 C18.2768459,13.6906397 19.233655,12.112492 20.9155906,11.5128063 C21.3553058,11.3554631 21.8013654,11.2812154 22.2294965,11.2812154 C22.5946655,11.2812154 22.9430673,11.3418127 23.2666297,11.4444671 L23.2666297,7.12497817 C20.3320509,7.12497817 17.1201045,7.94435066 14.8852181,9.26366494 L14.0219884,9.77306595 L14.0208271,16.0306479 C13.9971208,17.156994 13.1107794,18.2826998 11.7506786,18.7684091 C11.3109916,18.9257524 10.8643656,19 10.4362061,19 C9.2297861,19 8.16838005,18.4086093 7.79975564,17.4134699 C7.29880597,16.0656325 8.25564334,14.4874847 9.93757895,13.8877991 C10.3772942,13.7304558 10.8233538,13.6562082 11.2514849,13.6562082 C11.6166256,13.6562082 11.9650557,13.7168054 12.2886181,13.819518 L12.2886181,4.15623727 C12.2886181,3.51854008 12.6202526,2.92953606 13.1587587,2.61129868 Z M14.0219884,7.71872635 L14.0219884,4.15623727 C16.6590053,2.60003493 20.2251314,1.78124454 23.2666014,1.78124454 L23.2666014,5.34373363 C20.2251031,5.34373363 16.6590053,6.16249491 14.0219884,7.71872635 Z"></path>
                    <path d="M0.666666667,0.357142857 L7.33333333,0.357142857 L7.33333333,0.357142857 C7.70152317,0.357142857 8,0.655619691 8,1.02380952 L8,1.06158337 C8,1.4297732 7.70152317,1.72825004 7.33333333,1.72825004 L0.666666667,1.72825004 C0.298476833,1.72825004 -6.59320524e-17,1.4297732 -1.11022302e-16,1.06158337 L0,1.02380952 L1.11022302e-16,1.02380952 C6.59320524e-17,0.655619691 0.298476833,0.357142857 0.666666667,0.357142857 L0.666666667,0.357142857 Z M0.666666667,4.42857143 L7.33333333,4.42857143 C7.70152317,4.42857143 8,4.72704826 8,5.0952381 L8,5.13301194 C8,5.50120177 7.70152317,5.79967861 7.33333333,5.79967861 L0.666666667,5.79967861 C0.298476833,5.79967861 -6.59320524e-17,5.50120177 -1.11022302e-16,5.13301194 L0,5.0952381 L1.11022302e-16,5.0952381 C6.59320524e-17,4.72704826 0.298476833,4.42857143 0.666666667,4.42857143 Z M0.666666667,8.5 L7.33333333,8.5 C7.70152317,8.5 8,8.79847683 8,9.16666667 L8,9.20444051 C8,9.57263034 7.70152317,9.87110718 7.33333333,9.87110718 L0.666666667,9.87110718 C0.298476833,9.87110718 -6.59320524e-17,9.57263034 -1.11022302e-16,9.20444051 L0,9.16666667 L1.11022302e-16,9.16666667 C6.59320524e-17,8.79847683 0.298476833,8.5 0.666666667,8.5 Z" id="Combined-Shape"></path>
                </g>
            </g>
        </g>
    </g>
</svg>