<?xml version="1.0" encoding="UTF-8"?>
<svg width="21px" height="21px" viewBox="0 0 21 21" version="1.1" xmlns="http://www.w3.org/2000/svg" xmlns:xlink="http://www.w3.org/1999/xlink">
    <!-- Generator: Sketch 46.2 (44496) - http://www.bohemiancoding.com/sketch -->
    <title>searches@1x</title>
    <desc>Created with Sketch.</desc>
    <defs></defs>
    <g id="Blocks-&amp;-Components" stroke="none" stroke-width="1" fill="none" fill-rule="evenodd">
        <g id="icons/lens/white" transform="translate(-2.000000, 2.000000)">
            <g id="searches" transform="translate(-2.000000, -2.000000)">
                <rect id="frame" opacity="0.530061141" x="0" y="0" width="29" height="23"></rect>
                <path d="M18.9813779,13.2921404 C20.0171618,11.997358 20.6362776,10.3550718 20.6362776,8.56815018 C20.6362776,4.38843529 17.2480639,1.00001136 13.0681388,1.00001136 C8.88842393,1.00001136 5.5,4.38843529 5.5,8.56815018 C5.5,12.7478651 8.88842393,16.136289 13.0681388,16.136289 C14.8550605,16.136289 16.4973466,15.516963 17.792129,14.4811791 L22.5644712,19.2535213 C22.7286578,19.4177079 22.9439293,19.4999063 23.1589906,19.4999063 C23.3742621,19.4999063 23.5895336,19.4177079 23.7537201,19.2535213 C24.0820933,18.9253584 24.0820933,18.3926455 23.7537201,18.0644826 L18.9813779,13.2921404 Z M13.0681388,14.4544804 C9.81720274,14.4544804 7.18180863,11.8190863 7.18180863,8.56815018 C7.18180863,5.31721411 9.81720274,2.68181999 13.0681388,2.68181999 C16.3192851,2.68181999 18.954469,5.31721411 18.954469,8.56815018 C18.954469,11.8190863 16.3192851,14.4544804 13.0681388,14.4544804 L13.0681388,14.4544804 Z" id="shapes" stroke="#FFFFFF" stroke-width="1.55" fill="#FFFFFF"></path>
            </g>
        </g>
    </g>
</svg>