<?xml version="1.0" encoding="UTF-8"?>
<svg width="19px" height="19px" viewBox="0 0 19 19" version="1.1" xmlns="http://www.w3.org/2000/svg" xmlns:xlink="http://www.w3.org/1999/xlink">
    <!-- Generator: Sketch 46.2 (44496) - http://www.bohemiancoding.com/sketch -->
    <title>video_2@1x</title>
    <desc>Created with Sketch.</desc>
    <defs></defs>
    <g id="Blocks-&amp;-Components" stroke="none" stroke-width="1" fill="none" fill-rule="evenodd">
        <g id="icons/video/style-2/white" transform="translate(-3.000000, 0.000000)">
            <g id="video_2" transform="translate(-2.000000, -2.000000)">
                <rect id="frame" opacity="0.530061141" x="0" y="0" width="29" height="23"></rect>
                <path d="M21.625,20.9348029 L21.625,19.625 C21.625,19.0727153 21.1772847,18.625 20.625,18.625 L19.0625,18.625 C18.5102153,18.625 18.0625,19.0727153 18.0625,19.625 L18.0625,21 L10.9375,21 L10.9375,19.625 C10.9375,19.0727153 10.4897847,18.625 9.9375,18.625 L8.375,18.625 C7.82271525,18.625 7.375,19.0727153 7.375,19.625 L7.375,20.9348029 C6.01813068,20.6472605 5,19.4425288 5,18 L5,5 L5,5 C5,3.55747119 6.01813068,2.35273953 7.375,2.06519708 L7.375,3.375 C7.375,3.92728475 7.82271525,4.375 8.375,4.375 L9.9375,4.375 C10.4897847,4.375 10.9375,3.92728475 10.9375,3.375 L10.9375,2 L18.0625,2 L18.0625,3.375 C18.0625,3.92728475 18.5102153,4.375 19.0625,4.375 L20.625,4.375 C21.1772847,4.375 21.625,3.92728475 21.625,3.375 L21.625,2.06519708 C22.9818693,2.35273953 24,3.55747119 24,5 L24,18 C24,19.4425288 22.9818693,20.6472605 21.625,20.9348029 Z M8.375,6.75 C7.82271525,6.75 7.375,7.19771525 7.375,7.75 L7.375,9.3125 C7.375,9.86478475 7.82271525,10.3125 8.375,10.3125 L9.9375,10.3125 C10.4897847,10.3125 10.9375,9.86478475 10.9375,9.3125 L10.9375,7.75 C10.9375,7.19771525 10.4897847,6.75 9.9375,6.75 L8.375,6.75 Z M8.375,12.6875 C7.82271525,12.6875 7.375,13.1352153 7.375,13.6875 L7.375,15.25 C7.375,15.8022847 7.82271525,16.25 8.375,16.25 L9.9375,16.25 C10.4897847,16.25 10.9375,15.8022847 10.9375,15.25 L10.9375,13.6875 C10.9375,13.1352153 10.4897847,12.6875 9.9375,12.6875 L8.375,12.6875 Z M19.0625,6.75 C18.5102153,6.75 18.0625,7.19771525 18.0625,7.75 L18.0625,9.3125 C18.0625,9.86478475 18.5102153,10.3125 19.0625,10.3125 L20.625,10.3125 C21.1772847,10.3125 21.625,9.86478475 21.625,9.3125 L21.625,7.75 C21.625,7.19771525 21.1772847,6.75 20.625,6.75 L19.0625,6.75 Z M19.0625,12.6875 C18.5102153,12.6875 18.0625,13.1352153 18.0625,13.6875 L18.0625,15.25 C18.0625,15.8022847 18.5102153,16.25 19.0625,16.25 L20.625,16.25 C21.1772847,16.25 21.625,15.8022847 21.625,15.25 L21.625,13.6875 C21.625,13.1352153 21.1772847,12.6875 20.625,12.6875 L19.0625,12.6875 Z" id="shapes" fill="#FFFFFF"></path>
            </g>
        </g>
    </g>
</svg>