<?xml version="1.0" encoding="UTF-8"?>
<svg width="24px" height="14px" viewBox="0 0 24 14" version="1.1" xmlns="http://www.w3.org/2000/svg" xmlns:xlink="http://www.w3.org/1999/xlink">
    <!-- Generator: Sketch 46.2 (44496) - http://www.bohemiancoding.com/sketch -->
    <title>next@1x</title>
    <desc>Created with Sketch.</desc>
    <defs></defs>
    <g id="Blocks-&amp;-Components" stroke="none" stroke-width="1" fill="none" fill-rule="evenodd">
        <g id="blocks/mini-player/single-elements/icons/next" transform="translate(-2.000000, -7.000000)">
            <g id="next">
                <rect id="frame" x="0" y="0" width="28" height="28"></rect>
                <path d="M13.703928,15.3787367 L4.82519032,20.7157252 L4.82519032,20.7157252 C4.16249908,21.1140674 3.30236157,20.8997701 2.90401941,20.2370789 C2.77309745,20.0192741 2.70392804,19.7699415 2.70392804,19.5158166 L2.70392804,8.46973766 L2.70392804,8.46973766 C2.70392804,7.69653901 3.33072939,7.06973766 4.10392804,7.06973766 C4.358053,7.06973766 4.60738551,7.13890707 4.82519032,7.26982903 L13.703928,12.6068176 L13.703928,8.46973766 C13.703928,7.69653901 14.3307294,7.06973766 15.103928,7.06973766 C15.358053,7.06973766 15.6073855,7.13890707 15.8251903,7.26982903 L25.0134467,12.7928685 L25.0134467,12.7928685 C25.6761379,13.1912107 25.8904352,14.0513482 25.492093,14.7140394 C25.3740982,14.9103383 25.2097456,15.0746909 25.0134467,15.1926858 L25.0134467,15.1926858 L15.8251903,20.7157252 C15.1624991,21.1140674 14.3023616,20.8997701 13.9040194,20.2370789 C13.7730974,20.0192741 13.703928,19.7699415 13.703928,19.5158166 L13.703928,15.3787367 Z" id="shapes" fill="#FFFFFF"></path>
            </g>
        </g>
    </g>
</svg>