<?xml version="1.0" encoding="UTF-8"?>
<svg width="23px" height="14px" viewBox="0 0 23 14" version="1.1" xmlns="http://www.w3.org/2000/svg" xmlns:xlink="http://www.w3.org/1999/xlink">
    <!-- Generator: Sketch 46.2 (44496) - http://www.bohemiancoding.com/sketch -->
    <title>prev@1x</title>
    <desc>Created with Sketch.</desc>
    <defs></defs>
    <g id="Blocks-&amp;-Components" stroke="none" stroke-width="1" fill="none" fill-rule="evenodd">
        <g id="blocks/mini-player/single-elements/icons/prev" transform="translate(-2.000000, -7.000000)">
            <g id="prev">
                <rect id="frame" x="0" y="0" width="28" height="28"></rect>
                <path d="M13.1743736,15.3787367 L4.29563588,20.7157252 L4.29563588,20.7157252 C3.63294464,21.1140674 2.77280712,20.8997701 2.37446496,20.2370789 C2.243543,20.0192741 2.17437359,19.7699415 2.17437359,19.5158166 L2.17437359,8.46973766 L2.17437359,8.46973766 C2.17437359,7.69653901 2.80117495,7.06973766 3.57437359,7.06973766 C3.82849855,7.06973766 4.07783107,7.13890707 4.29563588,7.26982903 L13.1743736,12.6068176 L13.1743736,8.46973766 C13.1743736,7.69653901 13.8011749,7.06973766 14.5743736,7.06973766 C14.8284986,7.06973766 15.0778311,7.13890707 15.2956359,7.26982903 L23.9135506,12.4500375 L23.9135506,12.4500375 C24.7655822,12.9621917 25.0411072,14.0680828 24.528953,14.9201143 C24.3772454,15.1724987 24.1659349,15.3838092 23.9135506,15.5355168 L15.2956359,20.7157252 C14.6329446,21.1140674 13.7728071,20.8997701 13.374465,20.2370789 C13.243543,20.0192741 13.1743736,19.7699415 13.1743736,19.5158166 L13.1743736,15.3787367 Z" id="shapes" fill="#FFFFFF" transform="translate(13.480429, 13.992882) scale(-1, 1) translate(-13.480429, -13.992882) "></path>
            </g>
        </g>
    </g>
</svg>