<?xml version="1.0" encoding="UTF-8"?>
<svg width="16px" height="17px" viewBox="0 0 16 17" version="1.1" xmlns="http://www.w3.org/2000/svg" xmlns:xlink="http://www.w3.org/1999/xlink">
    <!-- Generator: Sketch 46.2 (44496) - http://www.bohemiancoding.com/sketch -->
    <title>close_white@1x</title>
    <desc>Created with Sketch.</desc>
    <defs></defs>
    <g id="Blocks-&amp;-Components" stroke="none" stroke-width="1" fill="none" fill-rule="evenodd">
        <g id="icons/close/small/white/ver_2/white" transform="translate(-7.000000, -6.000000)">
            <g id="close_white">
                <rect id="frame" x="0" y="0" width="28" height="28"></rect>
                <path d="M16.9953742,14.5024854 L22.3097444,9.18811519 C22.8600654,8.63779413 22.8600654,7.74554742 22.3097444,7.19522637 C21.7594233,6.64490532 20.8671766,6.64490532 20.3168556,7.19522637 L20.3168556,7.19522637 L15.0024854,12.5095966 L9.68811519,7.19522637 L9.68811519,7.19522637 C9.13779413,6.64490532 8.24554742,6.64490532 7.69522637,7.19522637 C7.14490532,7.74554742 7.14490532,8.63779413 7.69522637,9.18811519 L13.0095966,14.5024854 L7.69522637,19.8168556 C7.14490532,20.3671766 7.14490532,21.2594233 7.69522637,21.8097444 L7.69522637,21.8097444 C8.24554742,22.3600654 9.13779413,22.3600654 9.68811519,21.8097444 L9.68811519,21.8097444 L15.0024854,16.4953742 L20.3168556,21.8097444 L20.3168556,21.8097444 C20.8671766,22.3600654 21.7594233,22.3600654 22.3097444,21.8097444 L22.3097444,21.8097444 C22.8600654,21.2594233 22.8600654,20.3671766 22.3097444,19.8168556 L16.9953742,14.5024854 Z" id="shapes" fill="#FFFFFF"></path>
            </g>
        </g>
    </g>
</svg>