<?xml version="1.0" encoding="UTF-8"?>
<svg width="23px" height="21px" viewBox="0 0 23 21" version="1.1" xmlns="http://www.w3.org/2000/svg" xmlns:xlink="http://www.w3.org/1999/xlink">
    <!-- Generator: Sketch 46.2 (44496) - http://www.bohemiancoding.com/sketch -->
    <title>playlist</title>
    <desc>Created with Sketch.</desc>
    <defs></defs>
    <g id="Blocks-&amp;-Components" stroke="none" stroke-width="1" fill="none" fill-rule="evenodd">
        <g id="icons/playlist/black/tiny/black" transform="translate(-2.000000, -4.000000)">
            <g id="playlist">
                <rect id="frame" x="0" y="0" width="28" height="28"></rect>
                <g id="shapes" transform="translate(3.000000, 4.000000)" stroke-width="0.5" stroke="#1F111C" fill="#1F111C">
                    <path d="M10.7356228,4.45736938 C13.2937457,2.9185931 16.7808119,2 20.064711,2 C20.9483521,2 21.6645607,2.75039344 21.6645607,3.67627218 L21.6634889,14.8506896 C21.6416351,15.9106406 20.8235816,16.9699889 19.5682691,17.4270669 C19.1624577,17.57456 18.7502156,17.6449513 18.3550696,17.6449513 C17.2415977,17.6449513 16.2619672,17.0884216 15.9217433,16.1519979 C15.4593891,14.8836119 16.3424812,13.3984919 17.8948328,12.8341562 C18.3006704,12.6860879 18.7123635,12.616217 19.1075095,12.616217 C19.4445442,12.616217 19.7661035,12.6732422 20.0647372,12.7698454 L20.0647372,8.70497914 C17.3562517,8.70497914 14.3917684,9.47605174 12.3290679,10.7175959 L11.5323453,11.196969 L11.5312735,17.0856827 C11.5093936,18.1456336 10.6913401,19.204982 9.4360276,19.6620599 C9.03021617,19.8101282 8.61800021,19.8799992 8.22282813,19.8799992 C7.10935622,19.8799992 6.12972575,19.3234695 5.78950185,18.3869909 C5.32714764,17.118605 6.21026588,15.633485 7.76261747,15.0691492 C8.16845504,14.9210809 8.58014818,14.85121 8.97529412,14.85121 C9.31230269,14.85121 9.63388812,14.9082352 9.93252183,15.0048932 L9.93252183,5.91123783 C9.93252183,5.31113124 10.2386057,4.75684749 10.7356228,4.45736938 Z"></path>
                    <path d="M0.666666667,0.357142857 L6.33333333,0.357142857 C6.70152317,0.357142857 7,0.655619691 7,1.02380952 L7,1.06158337 L7,1.06158337 C7,1.4297732 6.70152317,1.72825004 6.33333333,1.72825004 L0.666666667,1.72825004 C0.298476833,1.72825004 -6.59320524e-17,1.4297732 -1.11022302e-16,1.06158337 L0,1.02380952 L-1.11022302e-16,1.02380952 C-1.56112553e-16,0.655619691 0.298476833,0.357142857 0.666666667,0.357142857 L0.666666667,0.357142857 Z M0.666666667,4.42857143 L6.33333333,4.42857143 C6.70152317,4.42857143 7,4.72704826 7,5.0952381 L7,5.13301194 L7,5.13301194 C7,5.50120177 6.70152317,5.79967861 6.33333333,5.79967861 L0.666666667,5.79967861 C0.298476833,5.79967861 -6.59320524e-17,5.50120177 -1.11022302e-16,5.13301194 L0,5.0952381 L-1.11022302e-16,5.0952381 C-1.56112553e-16,4.72704826 0.298476833,4.42857143 0.666666667,4.42857143 L0.666666667,4.42857143 Z M0.666666667,8.5 L6.33333333,8.5 C6.70152317,8.5 7,8.79847683 7,9.16666667 L7,9.20444051 L7,9.20444051 C7,9.57263034 6.70152317,9.87110718 6.33333333,9.87110718 L0.666666667,9.87110718 C0.298476833,9.87110718 -6.59320524e-17,9.57263034 -1.11022302e-16,9.20444051 L0,9.16666667 L-1.11022302e-16,9.16666667 C-1.56112553e-16,8.79847683 0.298476833,8.5 0.666666667,8.5 L0.666666667,8.5 Z" id="Combined-Shape"></path>
                </g>
            </g>
        </g>
    </g>
</svg>