<?xml version="1.0" encoding="UTF-8"?>
<svg width="22px" height="22px" viewBox="0 0 22 22" version="1.1" xmlns="http://www.w3.org/2000/svg" xmlns:xlink="http://www.w3.org/1999/xlink">
    <!-- Generator: Sketch 46.2 (44496) - http://www.bohemiancoding.com/sketch -->
    <title>your library</title>
    <desc>Created with Sketch.</desc>
    <defs></defs>
    <g id="Blocks-&amp;-Components" stroke="none" stroke-width="1" fill="none" fill-rule="evenodd">
        <g id="icons/library/black" transform="translate(-3.000000, -3.000000)">
            <g id="your-library">
                <rect id="frame" x="0" y="0" width="28" height="28"></rect>
                <path d="M13.0032919,12.4000244 L13,12.4000244 L13,13.1985273 L13,17.0500091 C12.838445,17.0172151 12.6712329,17 12.5,17 C11.1192881,17 10,18.1192881 10,19.5 C10,20.8807119 11.1192881,22 12.5,22 C13.8807119,22 15,20.8807119 15,19.5 C15,19.466517 14.9993418,19.4331877 14.9980375,19.4000244 L15,19.4000244 L15,18.7014971 L15,14 L17.0001925,14 C17.5562834,14 18,13.5527519 18,13.0010434 L18,12.5 C18,11.6657972 17.3283533,11 16.4998351,11 L14.5001649,11 C13.707812,11 13.0549397,11.6182097 13.0032919,12.4000244 Z M6,6.09008789 L6,5.0093251 C6,3.89960549 6.89451376,3 7.99406028,3 L20.0059397,3 C21.1072288,3 22,3.90183163 22,4.99227928 L22,6.11791992 L6,6.09008789 Z M3,11.0001262 C3,9.34320226 4.34308127,8 6.00138694,8 L21.9986131,8 C23.6562333,8 25,9.33396149 25,11.0001262 L25,21.9998738 C25,23.6567977 23.6569187,25 21.9986131,25 L6.00138694,25 C4.3437667,25 3,23.6660385 3,21.9998738 L3,11.0001262 Z" id="shapes" fill="#000000"></path>
            </g>
        </g>
    </g>
</svg>